<svg xmlns="http://www.w3.org/2000/svg" version="1.1" xmlns:xlink="http://www.w3.org/1999/xlink" xmlns:svgjs="http://svgjs.dev/svgjs" width="1000" height="1125" viewBox="0 0 1000 1125"><g transform="matrix(1,0,0,1,0,0)"><svg viewBox="0 0 320 360" data-background-color="#c9efc7" preserveAspectRatio="xMidYMid meet" height="1125" width="1000" xmlns="http://www.w3.org/2000/svg" xmlns:xlink="http://www.w3.org/1999/xlink"><g id="tight-bounds" transform="matrix(1,0,0,1,0,0)"><svg viewBox="0 0 320 360" height="360" width="320"><g><svg></svg></g><g><svg viewBox="0 0 320 360" height="360" width="320"><g><path xmlns="http://www.w3.org/2000/svg" d="M219.58 41.008c0.707 0 6.365 2.829 9.547 3.89-1.061 0.354-3.536-0.707-6.365-1.768 0.707 0 2.122 0.354 3.536 1.06-0.707-0.707-6.011-2.475-6.718-3.182M166.895 30.047c1.061-0.354 13.436 1.414 19.094 1.768 0.354-0.354-0.707-0.354-2.122-0.707 1.768-0.354 5.304 0.707 7.779 1.06-7.425 0.354-15.558-1.768-22.629-1.06-2.475 0-0.707-0.707-2.122-1.061M156.641 30.047c6.365 0 11.315 0 2.121 0.707-1.061-0.354-2.475-0.354-2.121-0.707M256.707 59.395c0.707 0 3.536 3.182 4.95 4.243-0.354 0.354-3.182-2.475-4.596-3.536 0.354 0.354 0 0-0.354-0.707M249.635 54.798c-2.829-2.475-3.889-2.475-4.243-3.889 2.475 1.414 4.243 2.829 4.243 3.889M204.022 32.522c0.354-0.354 1.061 0.354 2.829 0.707-2.122-0.354-1.768 0-1.061 0.707-2.475-0.354-3.182-0.707-2.475-1.414 1.414 0.707 1.768 0.354 0.707 0M103.602 36.765c0-0.354 1.414-1.061 2.475-1.414-1.061 0.707-0.707 1.061 1.061 0.353 0 0.354-2.122 1.061-3.536 1.768 0.707-0.354 1.414-1.414 0-0.707M211.094 28.986c-1.061 0.354-4.95-1.768-8.84-2.475-2.122-0.707 8.486 1.768 8.84 2.475M2.475 203.66c2.122 8.84 0.707 8.486 0 0M2.829 150.621c0.354-1.414 0.707-5.304 1.06-4.95-1.061 8.486-2.829 12.376-3.182 18.74 1.061-5.657-0.354 3.182-0.707 5.304 0.354 2.829 0.354-1.768 1.061-1.06 0.707 1.061-1.414 15.912-0.707 7.779-0.707 7.425 0 15.558 1.414 17.679-1.768 11.315 7.072 36.773 8.84 42.077 0.354 0.354 0-1.768 0.707-0.353 0.707 4.597 3.889 7.779 4.95 12.729 1.061 1.414 5.304 9.193 6.011 10.962 1.414 2.829 2.122 2.475 3.536 5.303 4.243 8.133 10.961 15.912 17.326 23.337 20.508 24.044 51.978 43.845 86.984 50.918 35.006 7.425 71.779 2.122 100.419-11.669 1.768-1.061 1.414-1.414 3.536-2.122 9.901-3.182 21.923-13.436 28.641-17.326 3.182-3.536 11.669-9.547 12.73-13.082 6.011-4.95 12.022-13.083 15.204-18.387 1.768-2.829 3.182-2.829 3.889-4.597-0.354 0 5.657-7.425 7.426-11.668-0.707 0-1.768 2.122-1.768 0 12.729-24.398 19.801-57.282 15.911-79.912 0.707 27.934-6.365 59.05-19.801 78.851-6.011 12.729-18.387 26.519-29.701 36.42-1.768 1.768-3.536 3.889-5.658 5.304-6.718 5.657-14.144 10.254-21.922 14.497-18.387 10.254-38.895 19.094-62.94 19.447 41.37-3.536 78.497-24.398 99.006-49.856-15.558 15.204-22.276 21.215-39.602 30.055-1.414 2.475-13.083 7.425-20.862 9.547 4.597-2.122 14.144-5.657 17.326-8.486-25.812 12.376-54.453 19.448-81.326 15.558 10.254 0 24.751 0.354 38.541-2.121 2.122-0.707 3.182-1.414 5.658-1.768 26.873-6.011 52.685-19.094 71.072-37.481-10.608 9.547-26.519 20.862-36.774 24.398 9.547-5.304 26.873-15.558 32.53-23.337-11.315 11.315-32.53 22.63-45.966 27.58-2.122 0.354 1.414-1.414-2.122 0-4.243 1.061-2.475 1.061-3.536 1.768-16.265 4.597-35.006 8.486-50.563 7.072-2.829-0.354-3.889-1.061-6.365-1.061-2.829-0.354-5.304-0.354-8.486-0.354-12.376-1.414-25.812-6.365-35.713-10.607-5.304-2.475-10.608-4.243-15.912-7.426-4.243-2.475-7.779-5.304-11.314-8.132-13.436-9.901-24.751-19.801-35.36-33.945-19.094-26.519-28.994-59.757-27.58-92.641 1.414-32.884 14.497-65.061 35.359-88.752-1.061 1.061 1.414-2.475 3.536-4.596 0 0.707-0.354 1.768 2.122-0.707 2.122-2.475-0.707-0.707 0.353-2.122 21.923-24.044 60.111-43.492 99.36-44.199 1.414-1.061 3.889-2.475 6.718-1.768 0 0.354-1.768 0.354-1.768 0.354 3.889-0.354 7.425-0.354 9.193 0.353 0.354-0.354-1.414-0.707 0-0.707 2.475 0.707 3.182 0 4.597 0.707-1.061 0-2.122 0-2.829 0.354 8.84 0 14.497 2.122 23.337 2.829-4.597-1.061-5.657-1.061-9.193-2.122 3.889 0.707 5.657 1.414 7.425 1.061-0.707 0-0.354-1.061 0.354-0.707 7.072 1.768 7.779 2.475 15.204 4.95 0.707-0.707-3.182-1.061-4.243-2.122 7.072 2.475 13.436 4.243 17.68 7.072-1.414-1.061-5.657-2.475-8.84-3.889-0.354 0.354 1.061 0.707 1.414 1.414-3.536-1.768-8.486-3.536-13.436-4.243 4.243 1.061 7.072 2.475 8.84 3.182-3.889-0.707-8.84-3.182-14.498-4.243 9.193 2.829 26.519 9.193 37.127 14.851-3.889-2.475-8.486-4.243-10.961-5.657 2.122 0.354 4.597 1.768 4.597 1.06 2.475 1.061 5.657 3.536 7.425 3.89-3.182-2.122-9.547-5.304-11.668-6.365 26.519 12.022 50.21 32.177 65.414 57.989 1.414 2.475 3.536 8.133 5.304 8.84-0.354-1.768-1.768-2.829-3.182-5.657 0.707 0 0.707-1.061 0-2.122-1.414-1.768 0 1.414-1.415-0.354-6.365-11.669-14.144-21.923-26.165-33.237 6.718 6.365 1.768 1.768 0.353-0.354 9.193 8.133 19.801 21.923 24.398 28.995-0.707-1.061-1.061-1.768-0.707-1.768 8.486 14.497 13.79 27.58 19.094 46.32 0.354 0.354 0-1.414 0.707-0.353 3.536 14.851 4.597 27.227 4.243 38.541 2.829-19.094-3.536-48.796-14.851-72.133-1.414-2.829-1.414-0.707-2.829-3.889 0-1.061-1.061-3.182-1.768-4.597-14.144-23.337-31.47-39.956-51.978-53.038 1.414 0.707 4.243 2.829 4.244 2.475-38.188-25.105-82.387-28.641-118.807-20.862-2.475 1.061-3.536 2.122-6.365 3.536 5.304-1.768 8.486-2.122 13.437-3.183 1.061-1.061-4.597 0.354-2.122-0.707 0.354 0.354 4.95-0.707 6.011-0.353 0 0.354-1.414 0.707-1.768 1.06 11.669-2.475 23.691-2.829 33.945-2.121-6.011 0.354-16.972-0.707-20.508 1.061 3.536-0.354 8.486-0.707 11.668-0.354-4.243 0-12.022 0.354-15.558 0.707-0.354-0.354 5.657-1.061 1.768-1.06-1.768 0.354-4.597 0.354-5.657 1.414-30.409 2.829-60.111 18.74-80.973 37.481-4.243 3.536-9.193 7.425-12.375 11.314-7.779 8.84-12.729 17.68-18.387 25.459 3.536-7.425 11.315-18.74 20.508-28.287 9.193-9.547 19.094-17.68 24.398-21.923 0 1.414 8.486-5.304 11.669-7.425-2.122 1.768 1.414-0.707 2.121-0.354 11.315-6.718 20.508-9.193 30.763-13.083-2.475 0.707-4.597 1.414-4.951 1.061 2.475-0.707 3.889-1.414 3.536-1.768-9.901 2.829-25.459 9.547-37.834 16.972 22.276-15.204 50.564-24.398 78.497-24.751 27.934-0.707 55.16 6.365 76.729 17.68 14.497 6.365 28.287 18.033 39.249 29.348 3.182 2.829 0.707-0.707 5.304 4.243-1.414-0.707-2.475-1.414-0.707 0.707 2.829 3.182-0.707-2.475 3.889 3.182-0.354 0-1.768-1.768-1.768-1.061 12.376 10.961 21.923 30.762 27.58 43.846-1.414-5.304-4.95-12.729-7.779-18.033 8.486 15.558 11.315 24.751 14.851 38.541 1.414 1.061-0.707-4.95 0.707-2.121 0.354 2.122 0.707 8.84 2.122 9.9-1.061-6.718-2.829-14.851-4.243-16.265 1.061 0.707-1.768-8.133-3.536-10.254-0.707-5.657-5.657-15.558-9.901-22.984-15.204-29.702-42.431-54.099-72.839-67.536 0-0.707-1.768-1.414-2.476-2.121-30.055-12.729-66.122-16.265-100.773-8.133-35.006 8.486-67.889 28.641-91.227 57.636 1.061-3.536 9.901-10.254 10.255-13.083-10.254 10.961-21.215 25.459-28.641 41.016-7.779 15.558-12.022 31.47-13.79 43.138" fill="#454545" fill-rule="nonzero" stroke="none" stroke-width="1" stroke-linecap="butt" stroke-linejoin="miter" stroke-miterlimit="10" stroke-dasharray="" stroke-dashoffset="0" font-family="none" font-weight="none" font-size="none" text-anchor="none" style="mix-blend-mode: normal" data-fill-palette-color="tertiary"></path></g><g transform="matrix(1,0,0,1,70,90)"><svg viewBox="0 0 180 180" height="180" width="180"><g><svg viewBox="0 0 180 180" height="180" width="180"><g><svg viewBox="0 0 180 180" height="180" width="180"><g id="textblocktransform"><svg viewBox="0 0 180 180" height="180" width="180" id="textblock"><g><svg viewBox="0 0 180 180" height="180" width="180"><g transform="matrix(1,0,0,1,47.57359312880715,51.4173691274748)"><svg viewBox="0 0 84.8528137423857 77.1652617450504" height="77.1652617450504" width="84.8528137423857"><g><svg xmlns="http://www.w3.org/2000/svg" xmlns:xlink="http://www.w3.org/1999/xlink" version="1.1" x="0" y="0" viewBox="12.877257347106934 35.09613800048828 487.0279541015625 442.90386962890625" style="enable-background:new 0 0 512 512;" xml:space="preserve" height="77.1652617450504" width="84.8528137423857" class="icon-o-0" data-fill-palette-color="accent" id="o-0"><g fill="#454545" data-fill-palette-color="accent"><g fill="#454545" data-fill-palette-color="accent"><g fill="#454545" data-fill-palette-color="accent"><path d="M359.5 477.8H189.4c-8.9 0-16.1-7.2-16.1-16.1V418c0-13.8-1-27.8-2.9-41.5-0.3-2.2 1.2-4.2 3.4-4.5 2.2-0.3 4.2 1.2 4.5 3.4 2 14.1 3 28.5 3 42.6v43.8c0 4.5 3.6 8.1 8.1 8.1h170.1c4.5 0 8.1-3.6 8.1-8.1v-42.6c0-2.2 1.8-4 4-4h47.5c16.8 0 30.5-13.7 30.5-30.5V324c0-2.2 1.7-4 3.9-4l27.8-0.5c3.8-0.1 7.2-2.1 9.1-5.3 1.9-3.3 2-7.2 0.3-10.5l-30.4-57.3c-7-13.4-10.7-28.3-10.7-43.3 0-43-16.8-83.4-47.4-113.7C371.7 59.1 331.1 42.6 288.1 43c-31.3 0.2-61.4 9.4-87.2 26.6-1.8 1.2-4.3 0.7-5.5-1.1-1.2-1.8-0.7-4.3 1.1-5.5 27-18 58.7-27.7 91.5-27.9 45.2-0.3 87.7 16.9 119.8 48.7 32.1 31.8 49.7 74.2 49.7 119.4 0 13.7 3.4 27.3 9.8 39.5l30.4 57.3c3.1 5.8 2.9 12.7-0.4 18.4-3.4 5.7-9.3 9.2-15.9 9.3l-23.9 0.4v56.6c0 21.2-17.3 38.5-38.5 38.5h-43.5v38.6C375.6 470.6 368.4 477.8 359.5 477.8z" fill="#454545" data-fill-palette-color="accent"></path></g><g fill="#454545" data-fill-palette-color="accent"><path d="M294.1 163c-0.8 0-1.6-0.2-2.3-0.8-1.8-1.3-2.2-3.8-0.9-5.6l13-18-2.1-98.6c0-2.2 1.7-4 3.9-4.1 0 0 0.1 0 0.1 0 2.2 0 4 1.7 4 3.9l2.2 100c0 0.9-0.2 1.7-0.8 2.4l-13.8 19.1C296.5 162.5 295.3 163 294.1 163z" fill="#454545" data-fill-palette-color="accent"></path></g><g fill="#454545" data-fill-palette-color="accent"><path d="M375.5 175.6c-1.3 0-2.5-0.6-3.3-1.7L360 156.1c-0.5-0.7-0.7-1.5-0.7-2.3l1.1-96.8c0-2.2 1.8-4 4-4 0 0 0 0 0 0 2.2 0 4 1.8 4 4l-1 95.5 11.4 16.8c1.2 1.8 0.8 4.3-1.1 5.6C377 175.4 376.2 175.6 375.5 175.6z" fill="#454545" data-fill-palette-color="accent"></path></g><g fill="#454545" data-fill-palette-color="accent"><path d="M305.7 478c-2.2 0-3.9-1.7-4-3.9l-2.2-83.3c-0.1-2.2 1.7-4 3.9-4.1 2.2-0.1 4 1.7 4.1 3.9l2.2 83.3c0.1 2.2-1.7 4-3.9 4.1C305.7 478 305.7 478 305.7 478z" fill="#454545" data-fill-palette-color="accent"></path></g><g fill="#454545" data-fill-palette-color="accent"><path d="M270.6 476.5c-2.2 0-4-1.7-4-3.9l-0.7-41.7L252.7 419c-1.6-1.5-1.8-4-0.3-5.6 1.5-1.6 4-1.8 5.6-0.3l14.5 13c0.8 0.7 1.3 1.8 1.3 2.9l0.7 43.4C274.6 474.7 272.9 476.5 270.6 476.5 270.6 476.5 270.6 476.5 270.6 476.5z" fill="#454545" data-fill-palette-color="accent"></path></g><g fill="#454545" data-fill-palette-color="accent"><path d="M147.3 347.2h-40.1c-2.2 0-4-1.8-4-4v-22c-17.1-4.4-32.6-13.3-45.1-26.1l-19.1 11.1c-0.9 0.5-2 0.7-3 0.4-1-0.3-1.9-0.9-2.4-1.9l-20-34.7c-1.1-1.9-0.4-4.3 1.5-5.5L34 253.4c-2.4-8.4-3.6-17.1-3.6-26 0-8.9 1.2-17.6 3.6-26.1l-19.1-11c-1.9-1.1-2.6-3.5-1.5-5.5l20-34.7c1.1-1.9 3.5-2.6 5.5-1.5l19.1 11c12.5-12.7 27.9-21.7 45.1-26.1v-22.1c0-2.2 1.8-4 4-4h40.1c2.2 0 4 1.8 4 4v22.1c17.1 4.4 32.6 13.3 45.1 26.1l19.1-11c1.9-1.1 4.4-0.4 5.5 1.5l20 34.7c1.1 1.9 0.4 4.4-1.5 5.5l-19.1 11c2.4 8.5 3.6 17.2 3.6 26.1 0 8.9-1.2 17.6-3.6 26l19.1 11.1c1.9 1.1 2.6 3.5 1.5 5.5l-20 34.7c-0.5 0.9-1.4 1.6-2.4 1.9-1 0.3-2.1 0.1-3-0.4l-19.1-11.1c-12.5 12.8-28 21.7-45.1 26.1v22C151.3 345.4 149.5 347.2 147.3 347.2zM111.2 339.2h32.1V318c0-1.9 1.3-3.5 3.1-3.9 17.8-3.9 33.8-13.2 46.3-26.8 1.3-1.4 3.3-1.7 4.9-0.8l18.4 10.7 16-27.8-18.4-10.7c-1.6-0.9-2.4-2.9-1.8-4.7 2.7-8.6 4.1-17.5 4.1-26.7 0-9.1-1.4-18.2-4.1-26.8-0.6-1.8 0.2-3.7 1.8-4.7l18.3-10.6-16-27.8-18.4 10.6c-1.6 0.9-3.7 0.6-4.9-0.8-12.4-13.6-28.4-22.8-46.3-26.7-1.8-0.4-3.1-2-3.1-3.9v-21.2h-32.1v21.2c0 1.9-1.3 3.5-3.1 3.9-17.8 3.9-33.8 13.2-46.3 26.7-1.3 1.4-3.3 1.7-4.9 0.8l-18.4-10.6-16 27.8 18.3 10.6c1.6 0.9 2.4 2.9 1.8 4.7-2.7 8.6-4.1 17.6-4.1 26.8 0 9.2 1.4 18.1 4.1 26.7 0.6 1.8-0.2 3.7-1.8 4.7l-18.4 10.7 16 27.8 18.4-10.7c1.6-0.9 3.7-0.6 5 0.8 12.5 13.6 28.5 22.9 46.3 26.8 1.8 0.4 3.1 2 3.1 3.9L111.2 339.2 111.2 339.2z" fill="#454545" data-fill-palette-color="accent"></path></g><g fill="#454545" data-fill-palette-color="accent"><path d="M127.2 290.6c-34.9 0-63.3-28.4-63.3-63.3 0-34.9 28.4-63.4 63.3-63.4 34.9 0 63.3 28.4 63.3 63.4C190.5 262.3 162.1 290.6 127.2 290.6zM127.2 172C96.8 172 72 196.9 72 227.4c0 30.5 24.8 55.3 55.3 55.3 30.5 0 55.3-24.8 55.3-55.3C182.5 196.9 157.7 172 127.2 172z" fill="#454545" data-fill-palette-color="accent"></path></g><g fill="#454545" data-fill-palette-color="accent"><path d="M127.2 264.2c-20.3 0-36.8-16.5-36.8-36.8 0-20.3 16.5-36.8 36.8-36.8 20.3 0 36.8 16.5 36.8 36.8C164 247.7 147.5 264.2 127.2 264.2zM127.2 198.6c-15.9 0-28.8 12.9-28.8 28.8 0 15.9 12.9 28.8 28.8 28.8 15.9 0 28.8-12.9 28.8-28.8C156 211.5 143.1 198.6 127.2 198.6z" fill="#454545" data-fill-palette-color="accent"></path></g><g fill="#454545" data-fill-palette-color="accent"><path d="M283.7 199.2c-13 0-23.6-10.6-23.6-23.6 0-13 10.6-23.6 23.6-23.6 13 0 23.5 10.6 23.5 23.6C307.2 188.6 296.7 199.2 283.7 199.2zM283.7 160.1c-8.6 0-15.6 7-15.6 15.6 0 8.6 7 15.6 15.6 15.6 8.5 0 15.5-7 15.5-15.6C299.2 167 292.3 160.1 283.7 160.1z" fill="#454545" data-fill-palette-color="accent"></path></g><g fill="#454545" data-fill-palette-color="accent"><path d="M386.3 211.5c-13 0-23.5-10.6-23.5-23.6 0-13 10.5-23.6 23.5-23.6 13 0 23.6 10.6 23.6 23.6C409.8 200.9 399.3 211.5 386.3 211.5zM386.3 172.3c-8.5 0-15.5 7-15.5 15.6 0 8.6 7 15.6 15.5 15.6 8.6 0 15.6-7 15.6-15.6C401.8 179.3 394.9 172.3 386.3 172.3z" fill="#454545" data-fill-palette-color="accent"></path></g><g fill="#454545" data-fill-palette-color="accent"><path d="M303.5 396.7c-13 0-23.6-10.5-23.6-23.5 0-13 10.6-23.6 23.6-23.6 13 0 23.5 10.6 23.5 23.6C327 386.1 316.5 396.7 303.5 396.7zM303.5 357.6c-8.6 0-15.6 7-15.6 15.6 0 8.6 7 15.5 15.6 15.5 8.5 0 15.5-7 15.5-15.5C319 364.6 312.1 357.6 303.5 357.6z" fill="#454545" data-fill-palette-color="accent"></path></g><g fill="#454545" data-fill-palette-color="accent"><path d="M242.7 425.6c-13 0-23.5-10.6-23.5-23.6 0-13 10.5-23.5 23.5-23.5 13 0 23.6 10.5 23.6 23.5C266.3 415 255.7 425.6 242.7 425.6zM242.7 386.5c-8.5 0-15.5 7-15.5 15.5 0 8.6 7 15.6 15.5 15.6 8.6 0 15.6-7 15.6-15.6C258.3 393.5 251.3 386.5 242.7 386.5z" fill="#454545" data-fill-palette-color="accent"></path></g></g></g></svg></g></svg></g><path d="M7.206 114.324l-0.686-1.789 16.235-3.474c-0.65-0.712-1.395-1.168-2.233-1.367-0.832-0.201-1.727-0.119-2.683 0.248v0c-0.447 0.171-0.807 0.348-1.079 0.531-0.272 0.183-0.488 0.354-0.647 0.515-0.159 0.161-0.277 0.309-0.353 0.445-0.079 0.13-0.156 0.234-0.232 0.313v0c-0.331-0.863-0.397-1.64-0.198-2.328 0.197-0.695 0.77-1.225 1.721-1.589v0c0.658-0.252 1.371-0.336 2.137-0.252 0.766 0.084 1.505 0.303 2.217 0.657 0.704 0.35 1.35 0.818 1.938 1.405 0.582 0.589 1.019 1.266 1.312 2.03v0c0.233 0.609 0.358 1.252 0.376 1.929v0l-11.014 6.506 12.702-2.099 1.232 3.214-16.016 7.45-1.235-3.224 9.78-4.537-10.84 1.77-1.174-3.065 9.391-5.553zM35.846 139.58l2.489 2.377-5.623 5.889c-0.464 0.486-0.702 0.87-0.714 1.152-0.017 0.287 0.141 0.59 0.472 0.907v0c0.337 0.322 0.756 0.446 1.258 0.373 0.497-0.077 0.976-0.319 1.437-0.725v0l0.722 0.689c-0.767 0.62-1.465 1.029-2.096 1.227-0.635 0.203-1.205 0.28-1.71 0.23-0.505-0.05-0.938-0.183-1.3-0.4-0.367-0.222-0.667-0.443-0.898-0.664v0c-0.885-0.845-1.274-1.686-1.166-2.521 0.113-0.831 0.555-1.65 1.327-2.458v0zM37.849 137.092v0c0.363-0.38 0.81-0.579 1.341-0.596 0.522-0.017 0.973 0.156 1.353 0.52v0c0.38 0.363 0.579 0.81 0.596 1.341 0.008 0.531-0.17 0.987-0.533 1.367v0c-0.363 0.38-0.805 0.574-1.328 0.581-0.527 0.003-0.98-0.177-1.36-0.54v0c-0.38-0.363-0.576-0.803-0.588-1.32-0.017-0.522 0.156-0.973 0.519-1.353zM61.014 161.508v0c0.354-0.89 0.504-1.564 0.45-2.022-0.048-0.456-0.257-0.757-0.628-0.905v0c-0.222-0.089-0.434-0.105-0.635-0.049-0.201 0.056-0.393 0.159-0.574 0.309-0.184 0.156-0.355 0.342-0.512 0.558-0.154 0.225-0.291 0.461-0.411 0.707v0l-2.84 7.138-3.199-1.272 4.427-11.125 3.199 1.273-0.461 1.159c0.553-0.381 1.073-0.565 1.561-0.55 0.497 0.011 0.936 0.093 1.319 0.246v0c0.414 0.165 0.786 0.391 1.115 0.68 0.323 0.286 0.567 0.644 0.732 1.075 0.156 0.435 0.213 0.948 0.171 1.54-0.048 0.589-0.226 1.27-0.533 2.042v0c-0.076 0.192-0.175 0.431-0.297 0.72-0.122 0.288-0.251 0.577-0.388 0.866-0.13 0.292-0.254 0.575-0.371 0.851-0.119 0.282-0.217 0.519-0.293 0.71v0c-0.253 0.637-0.379 1.141-0.378 1.515 0.008 0.375 0.241 0.654 0.699 0.836v0c0.507 0.202 0.933 0.156 1.278-0.136 0.352-0.29 0.699-0.695 1.043-1.217v0l0.936 0.372c-0.478 0.841-0.942 1.486-1.394 1.937-0.451 0.45-0.882 0.759-1.291 0.925-0.412 0.172-0.811 0.239-1.197 0.201-0.377-0.043-0.729-0.129-1.056-0.26v0c-1.137-0.453-1.812-1.158-2.026-2.116-0.213-0.958-0.068-2.068 0.434-3.328v0c0.054-0.136 0.133-0.326 0.238-0.571 0.102-0.239 0.206-0.491 0.312-0.757 0.108-0.272 0.216-0.526 0.324-0.762 0.105-0.245 0.186-0.441 0.246-0.59zM94.122 162.059l3.439-0.156 0.501 11.104c0.333-0.148 0.622-0.314 0.866-0.498 0.245-0.184 0.457-0.413 0.638-0.688 0.181-0.275 0.322-0.601 0.426-0.978 0.103-0.378 0.175-0.834 0.217-1.368v0l0.997-0.045c-0.044 0.801-0.16 1.465-0.349 1.993-0.189 0.528-0.432 0.968-0.73 1.321-0.297 0.346-0.621 0.624-0.971 0.833-0.35 0.209-0.699 0.378-1.046 0.507v0l0.077 1.694c0.039 0.864-0.033 1.563-0.215 2.097-0.182 0.534-0.43 0.955-0.742 1.262-0.319 0.314-0.669 0.53-1.05 0.647-0.387 0.124-0.764 0.194-1.129 0.211v0c-0.465 0.021-0.903-0.022-1.314-0.131-0.411-0.108-0.771-0.272-1.081-0.49-0.303-0.219-0.552-0.491-0.746-0.815-0.188-0.331-0.291-0.703-0.31-1.115v0c-0.019-0.432 0.056-0.825 0.226-1.179 0.164-0.347 0.393-0.657 0.688-0.93 0.288-0.266 0.62-0.501 0.997-0.704 0.377-0.197 0.762-0.367 1.155-0.512v0l-0.091-2.013c-0.252 0.458-0.584 0.849-0.996 1.173-0.405 0.318-0.953 0.492-1.644 0.524v0c-0.492 0.022-0.988-0.049-1.488-0.212-0.507-0.17-0.969-0.456-1.387-0.857-0.417-0.394-0.764-0.924-1.04-1.591-0.276-0.667-0.436-1.479-0.48-2.435v0c-0.032-0.718 0.014-1.459 0.14-2.224 0.125-0.765 0.36-1.471 0.703-2.119 0.35-0.648 0.822-1.189 1.415-1.622 0.593-0.433 1.338-0.67 2.235-0.71v0c0.159-0.007 0.34-0.002 0.54 0.016 0.2 0.011 0.399 0.052 0.595 0.122 0.19 0.071 0.378 0.183 0.564 0.335 0.18 0.152 0.326 0.361 0.438 0.629v0zM93.027 163.476v0c-0.399 0.018-0.731 0.183-0.996 0.495-0.265 0.318-0.477 0.717-0.635 1.197-0.165 0.48-0.274 1.008-0.329 1.583-0.054 0.575-0.069 1.135-0.044 1.68v0c0.034 0.751 0.123 1.329 0.269 1.736 0.152 0.413 0.319 0.715 0.5 0.906 0.182 0.192 0.363 0.303 0.544 0.335 0.175 0.032 0.312 0.046 0.412 0.041v0c0.505-0.023 0.906-0.211 1.203-0.563 0.297-0.346 0.468-0.777 0.511-1.292v0l-0.241-5.333c-0.06-0.157-0.185-0.331-0.373-0.522-0.195-0.191-0.469-0.278-0.821-0.263zM92.857 177.197v0c0.013 0.299 0.128 0.54 0.343 0.724 0.221 0.183 0.442 0.27 0.661 0.26v0c0.286-0.013 0.514-0.2 0.683-0.56 0.17-0.361 0.239-0.9 0.207-1.618v0l-0.031-0.688c-0.548 0.244-1.002 0.525-1.36 0.841-0.352 0.309-0.52 0.656-0.503 1.041zM130.02 162.261v0c-0.183 0.064-0.342 0.062-0.478-0.007-0.141-0.066-0.246-0.171-0.314-0.315v0c-0.088-0.187-0.093-0.408-0.015-0.666 0.071-0.254 0.288-0.466 0.649-0.636v0c0.403-0.19 0.769-0.201 1.098-0.032 0.332 0.174 0.583 0.442 0.753 0.803v0c0.108 0.229 0.173 0.485 0.197 0.768 0.026 0.274-0.007 0.555-0.101 0.842-0.102 0.283-0.259 0.552-0.47 0.805-0.22 0.251-0.511 0.461-0.871 0.631v0l-5.977 2.814-0.304-11.657-1.598 0.752c-0.319 0.15-0.575 0.293-0.769 0.428-0.194 0.135-0.261 0.266-0.201 0.393v0c0.028 0.06 0.061 0.082 0.097 0.065 0.036-0.017 0.088-0.023 0.156-0.019 0.059 0.001 0.129 0.039 0.207 0.112 0.076 0.067 0.165 0.209 0.267 0.426v0c0.15 0.319 0.163 0.596 0.038 0.831-0.131 0.238-0.319 0.415-0.566 0.531v0c-0.289 0.136-0.611 0.17-0.966 0.102-0.358-0.074-0.632-0.313-0.822-0.716v0c-0.102-0.217-0.163-0.456-0.184-0.718-0.021-0.262 0.01-0.534 0.09-0.815 0.084-0.275 0.225-0.536 0.425-0.784 0.202-0.242 0.478-0.445 0.827-0.61v0l5.958-2.805 0.179 11.109c0.084-0.04 0.209-0.087 0.374-0.143 0.168-0.064 0.345-0.133 0.532-0.206 0.189-0.067 0.377-0.137 0.562-0.209 0.189-0.067 0.356-0.134 0.501-0.203v0c0.259-0.122 0.464-0.255 0.616-0.4 0.152-0.145 0.189-0.302 0.11-0.471zM151.198 138.507v0c-0.727-0.624-1.308-0.988-1.746-1.092-0.437-0.104-0.786-0.004-1.045 0.299v0c-0.156 0.182-0.24 0.377-0.253 0.585-0.013 0.208 0.023 0.423 0.105 0.643 0.088 0.224 0.208 0.447 0.362 0.666 0.163 0.219 0.341 0.425 0.535 0.618v0l5.827 5.007-2.243 2.611-12.351-10.613 1.88-2.923 4.579 3.934c-0.181-0.647-0.185-1.198-0.013-1.654 0.172-0.466 0.393-0.855 0.662-1.168v0c0.29-0.338 0.626-0.616 1.005-0.834 0.375-0.212 0.794-0.327 1.255-0.342 0.462-0.007 0.966 0.106 1.512 0.338 0.542 0.237 1.128 0.627 1.758 1.169v0c0.156 0.134 0.351 0.306 0.584 0.515 0.233 0.209 0.464 0.425 0.693 0.648 0.234 0.218 0.462 0.427 0.684 0.627 0.228 0.204 0.42 0.374 0.576 0.508v0c0.52 0.447 0.965 0.719 1.336 0.819 0.371 0.099 0.716-0.038 1.037-0.411v0c0.178-0.207 0.285-0.413 0.321-0.619 0.032-0.201 0.014-0.404-0.053-0.611-0.073-0.211-0.186-0.427-0.339-0.647-0.144-0.22-0.31-0.455-0.499-0.705v0l0.656-0.764c0.64 0.725 1.099 1.374 1.379 1.947 0.279 0.573 0.427 1.086 0.442 1.538 0.025 0.451-0.042 0.85-0.2 1.196-0.163 0.343-0.359 0.647-0.588 0.915v0c-0.802 0.933-1.691 1.345-2.666 1.235-0.971-0.115-1.971-0.615-3.001-1.499v0c-0.111-0.095-0.265-0.232-0.462-0.411-0.192-0.174-0.397-0.354-0.615-0.541-0.222-0.191-0.432-0.375-0.629-0.553-0.203-0.183-0.364-0.326-0.485-0.431zM172.052 111.256v0c0.144-0.457 0.211-0.878 0.202-1.265-0.017-0.389-0.082-0.755-0.197-1.099-0.117-0.337-0.282-0.665-0.495-0.983-0.207-0.317-0.439-0.631-0.697-0.942v0l0.247-0.78c0.465 0.384 0.904 0.802 1.32 1.254 0.407 0.457 0.738 0.966 0.992 1.528 0.263 0.558 0.424 1.163 0.483 1.816 0.059 0.653-0.036 1.37-0.282 2.151v0c-0.207 0.653-0.494 1.222-0.864 1.704-0.371 0.49-0.829 0.868-1.374 1.136-0.547 0.274-1.185 0.417-1.915 0.43-0.736 0.011-1.567-0.129-2.493-0.422v0c-0.653-0.207-1.334-0.502-2.043-0.886-0.709-0.384-1.325-0.862-1.849-1.433-0.526-0.564-0.903-1.227-1.129-1.989-0.228-0.756-0.191-1.613 0.111-2.57v0c0.231-0.729 0.523-1.258 0.878-1.586 0.353-0.321 0.711-0.529 1.076-0.622 0.365-0.094 0.699-0.114 1.003-0.06 0.297 0.052 0.506 0.097 0.626 0.135v0c0.685 0.217 1.248 0.531 1.691 0.943 0.44 0.418 0.771 0.893 0.994 1.424 0.223 0.531 0.344 1.096 0.364 1.695 0.02 0.599-0.044 1.186-0.191 1.76v0c1.025 0.31 1.805 0.369 2.341 0.175 0.54-0.185 0.94-0.69 1.201-1.514zM165.125 108.543v-0.001c-0.533-0.168-0.938-0.199-1.217-0.091-0.28 0.114-0.454 0.278-0.522 0.494v0c-0.082 0.26-0.03 0.535 0.158 0.824 0.179 0.294 0.453 0.586 0.821 0.877 0.368 0.291 0.819 0.576 1.352 0.857 0.534 0.274 1.101 0.523 1.699 0.746v0c0.089-0.391 0.1-0.781 0.036-1.171-0.073-0.386-0.21-0.747-0.411-1.082-0.209-0.331-0.473-0.624-0.79-0.878-0.326-0.249-0.701-0.441-1.126-0.576z" fill="#454545" data-fill-palette-color="primary"></path><path d="M22.038 63.124L21.353 64.913 6.952 56.65C6.96 57.615 7.21 58.451 7.701 59.159 8.185 59.865 8.906 60.401 9.863 60.768V60.768C10.31 60.939 10.696 61.047 11.02 61.093 11.344 61.139 11.62 61.156 11.845 61.142 12.071 61.129 12.258 61.097 12.405 61.047 12.551 61.003 12.678 60.977 12.788 60.969V60.969C12.457 61.833 11.988 62.454 11.379 62.834 10.768 63.219 9.988 63.23 9.037 62.866V62.866C8.379 62.614 7.793 62.201 7.279 61.626 6.766 61.052 6.362 60.395 6.068 59.656 5.778 58.925 5.611 58.145 5.565 57.315 5.526 56.488 5.652 55.693 5.945 54.929V54.929C6.178 54.32 6.515 53.758 6.954 53.242V53.242L19.495 55.76 8.643 48.835 9.874 45.621 26.768 50.778 25.533 54.002 15.224 50.844 24.473 56.77 23.298 59.835 12.601 57.692ZM30.821 25.538L33.31 23.16 38.933 29.049C39.397 29.535 39.77 29.79 40.052 29.815 40.338 29.846 40.647 29.702 40.979 29.385V29.385C41.316 29.064 41.46 28.651 41.41 28.146 41.356 27.646 41.136 27.156 40.752 26.677V26.677L41.474 25.988C42.058 26.782 42.434 27.499 42.603 28.138 42.776 28.782 42.827 29.355 42.754 29.857 42.681 30.358 42.528 30.785 42.294 31.137 42.055 31.494 41.82 31.783 41.589 32.003V32.003C40.704 32.849 39.847 33.198 39.017 33.052 38.193 32.901 37.395 32.422 36.623 31.614V31.614ZM28.428 23.422V23.422C28.065 23.042 27.887 22.586 27.895 22.054 27.902 21.532 28.096 21.09 28.476 20.727V20.727C28.856 20.364 29.312 20.186 29.843 20.194 30.374 20.211 30.821 20.409 31.184 20.789V20.789C31.547 21.169 31.72 21.62 31.704 22.142 31.682 22.669 31.481 23.113 31.101 23.476V23.476C30.721 23.839 30.273 24.015 29.755 24.003 29.233 23.995 28.791 23.802 28.428 23.422ZM62.798 10.296V10.296C62.443 9.406 62.089 8.813 61.735 8.517 61.388 8.219 61.028 8.144 60.657 8.291V8.291C60.435 8.38 60.27 8.514 60.162 8.692 60.054 8.871 59.986 9.078 59.957 9.311 59.931 9.551 59.935 9.803 59.969 10.069 60.012 10.338 60.074 10.603 60.156 10.864V10.864L62.997 18.002 59.799 19.275 55.372 8.15 58.57 6.878 59.031 8.036C59.171 7.38 59.423 6.889 59.788 6.565 60.156 6.232 60.532 5.989 60.916 5.837V5.837C61.33 5.672 61.755 5.581 62.193 5.565 62.624 5.551 63.047 5.643 63.463 5.843 63.875 6.051 64.269 6.385 64.645 6.844 65.015 7.305 65.354 7.922 65.661 8.695V8.695C65.737 8.886 65.83 9.129 65.94 9.421 66.049 9.714 66.154 10.013 66.253 10.317 66.359 10.619 66.464 10.91 66.568 11.19 66.675 11.477 66.767 11.716 66.843 11.908V11.908C67.097 12.544 67.352 12.997 67.61 13.267 67.874 13.534 68.234 13.577 68.692 13.395V13.395C69.198 13.193 69.477 12.868 69.527 12.418 69.583 11.966 69.557 11.433 69.448 10.817V10.817L70.385 10.445C70.615 11.384 70.721 12.172 70.703 12.809 70.685 13.447 70.584 13.967 70.4 14.369 70.219 14.778 69.975 15.1 69.668 15.337 69.365 15.565 69.05 15.744 68.722 15.874V15.874C67.585 16.327 66.61 16.278 65.797 15.728 64.984 15.178 64.327 14.273 63.825 13.012V13.012C63.771 12.876 63.698 12.683 63.605 12.434 63.516 12.19 63.418 11.936 63.312 11.67 63.204 11.398 63.108 11.139 63.024 10.893 62.932 10.643 62.857 10.444 62.798 10.296ZM96.672 0.219L100.111 0.375 99.61 11.479C99.955 11.361 100.258 11.221 100.518 11.06 100.778 10.899 101.011 10.689 101.216 10.432 101.42 10.175 101.591 9.863 101.727 9.497 101.864 9.13 101.977 8.682 102.068 8.154V8.154L103.064 8.199C102.949 8.992 102.773 9.644 102.537 10.152 102.301 10.661 102.019 11.078 101.691 11.403 101.364 11.721 101.016 11.968 100.649 12.145 100.281 12.321 99.919 12.458 99.562 12.555V12.555L99.485 14.25C99.446 15.113 99.312 15.803 99.082 16.319 98.853 16.835 98.568 17.231 98.229 17.509 97.884 17.793 97.516 17.976 97.126 18.058 96.729 18.147 96.348 18.183 95.982 18.167V18.167C95.517 18.146 95.085 18.063 94.685 17.918 94.286 17.774 93.942 17.578 93.653 17.332 93.371 17.087 93.148 16.794 92.984 16.453 92.826 16.107 92.757 15.727 92.775 15.315V15.315C92.795 14.883 92.905 14.499 93.107 14.162 93.302 13.831 93.558 13.543 93.875 13.297 94.185 13.058 94.538 12.854 94.931 12.686 95.325 12.524 95.724 12.389 96.128 12.28V12.28L96.219 10.267C95.927 10.7 95.561 11.059 95.122 11.346 94.69 11.626 94.128 11.751 93.437 11.719V11.719C92.945 11.697 92.458 11.582 91.974 11.374 91.485 11.159 91.05 10.833 90.67 10.396 90.29 9.966 89.992 9.407 89.777 8.718 89.562 8.029 89.476 7.206 89.519 6.249V6.249C89.551 5.531 89.664 4.797 89.858 4.047 90.051 3.297 90.349 2.614 90.749 2 91.156 1.386 91.675 0.89 92.305 0.512 92.934 0.134 93.698-0.035 94.595 0.006V0.006C94.754 0.013 94.933 0.034 95.131 0.07 95.33 0.099 95.523 0.158 95.712 0.246 95.895 0.334 96.072 0.462 96.244 0.63 96.41 0.797 96.537 1.019 96.624 1.296V1.296ZM95.455 1.533V1.533C95.056 1.515 94.71 1.649 94.418 1.936 94.125 2.229 93.878 2.607 93.677 3.071 93.47 3.534 93.314 4.05 93.208 4.618 93.102 5.186 93.037 5.742 93.013 6.287V6.287C92.979 7.038 93.016 7.622 93.123 8.04 93.237 8.464 93.376 8.78 93.54 8.987 93.704 9.195 93.875 9.322 94.052 9.37 94.223 9.418 94.359 9.444 94.458 9.448V9.448C94.963 9.471 95.38 9.32 95.707 8.995 96.034 8.677 96.243 8.264 96.332 7.755V7.755L96.573 2.422C96.527 2.26 96.419 2.076 96.249 1.868 96.071 1.661 95.807 1.549 95.455 1.533ZM94.05 15.183V15.183C94.036 15.482 94.128 15.732 94.325 15.934 94.529 16.137 94.741 16.243 94.96 16.253V16.253C95.246 16.266 95.49 16.1 95.692 15.756 95.894 15.413 96.011 14.882 96.043 14.164V14.164L96.074 13.476C95.506 13.671 95.029 13.909 94.644 14.191 94.265 14.467 94.067 14.797 94.05 15.183ZM128.145 18.717V18.717C127.979 18.617 127.879 18.493 127.846 18.345 127.807 18.194 127.821 18.046 127.889 17.902V17.902C127.977 17.715 128.145 17.57 128.392 17.466 128.634 17.359 128.935 17.391 129.296 17.561V17.561C129.699 17.75 129.941 18.026 130.021 18.387 130.098 18.754 130.052 19.118 129.882 19.479V19.479C129.774 19.708 129.618 19.922 129.415 20.12 129.22 20.315 128.983 20.468 128.702 20.579 128.419 20.681 128.112 20.731 127.782 20.73 127.449 20.72 127.101 20.63 126.74 20.46V20.46L120.764 17.646 129.554 9.985 127.956 9.232C127.637 9.082 127.364 8.976 127.137 8.912 126.909 8.849 126.765 8.881 126.706 9.007V9.007C126.678 9.068 126.681 9.106 126.718 9.123 126.754 9.14 126.792 9.177 126.832 9.232 126.868 9.279 126.884 9.356 126.877 9.463 126.874 9.564 126.821 9.723 126.719 9.94V9.94C126.569 10.259 126.363 10.445 126.103 10.499 125.836 10.55 125.58 10.517 125.333 10.401V10.401C125.044 10.265 124.812 10.039 124.638 9.721 124.467 9.398 124.476 9.035 124.666 8.632V8.632C124.768 8.415 124.914 8.215 125.103 8.032 125.292 7.849 125.52 7.699 125.788 7.583 126.054 7.473 126.345 7.415 126.664 7.411 126.979 7.412 127.311 7.495 127.66 7.659V7.659L133.618 10.464 125.17 17.681C125.255 17.72 125.371 17.786 125.519 17.878 125.675 17.966 125.841 18.059 126.016 18.156 126.188 18.259 126.362 18.359 126.537 18.456 126.709 18.559 126.867 18.645 127.011 18.713V18.713C127.27 18.835 127.504 18.908 127.713 18.933 127.922 18.957 128.066 18.886 128.145 18.717ZM153.935 33.498V33.498C154.662 32.874 155.109 32.353 155.277 31.937 155.446 31.52 155.4 31.161 155.14 30.858V30.858C154.984 30.676 154.804 30.564 154.599 30.52 154.395 30.476 154.178 30.479 153.948 30.527 153.713 30.58 153.475 30.666 153.235 30.785 152.994 30.913 152.764 31.058 152.544 31.22V31.22L146.717 36.227 144.473 33.617 156.824 23.004 159.431 25.303 154.852 29.237C155.519 29.156 156.065 29.235 156.49 29.474 156.924 29.715 157.276 29.991 157.545 30.304V30.304C157.835 30.642 158.06 31.015 158.217 31.424 158.371 31.827 158.421 32.257 158.367 32.716 158.304 33.173 158.117 33.654 157.805 34.159 157.489 34.659 157.015 35.179 156.385 35.721V35.721C156.228 35.856 156.029 36.022 155.788 36.221 155.547 36.42 155.298 36.615 155.043 36.808 154.792 37.006 154.551 37.2 154.32 37.39 154.083 37.585 153.887 37.749 153.731 37.883V37.883C153.211 38.33 152.874 38.729 152.72 39.081 152.566 39.432 152.649 39.795 152.97 40.168V40.168C153.148 40.375 153.336 40.512 153.534 40.578 153.727 40.64 153.931 40.653 154.146 40.618 154.366 40.578 154.596 40.499 154.836 40.38 155.076 40.271 155.333 40.142 155.609 39.993V39.993L156.265 40.757C155.452 41.28 154.741 41.637 154.132 41.827 153.524 42.016 152.995 42.085 152.546 42.032 152.097 41.989 151.712 41.863 151.393 41.655 151.079 41.442 150.807 41.202 150.577 40.935V40.935C149.775 40.001 149.502 39.061 149.758 38.113 150.018 37.171 150.663 36.257 151.692 35.373V35.373C151.803 35.278 151.961 35.146 152.168 34.977 152.369 34.813 152.578 34.638 152.795 34.452 153.017 34.261 153.231 34.081 153.437 33.913 153.648 33.74 153.814 33.602 153.935 33.498ZM164.682 64.298V64.298C164.827 64.755 165.014 65.139 165.245 65.449 165.482 65.758 165.746 66.02 166.038 66.235 166.327 66.443 166.65 66.617 167.008 66.755 167.359 66.895 167.729 67.019 168.119 67.126V67.126L168.366 67.906C167.765 67.858 167.164 67.769 166.565 67.638 165.97 67.498 165.406 67.272 164.874 66.958 164.339 66.653 163.859 66.25 163.435 65.75 163.012 65.249 162.677 64.608 162.43 63.828V63.828C162.224 63.175 162.132 62.544 162.157 61.937 162.179 61.323 162.336 60.75 162.628 60.218 162.919 59.68 163.358 59.195 163.948 58.765 164.544 58.332 165.304 57.969 166.23 57.677V57.677C166.884 57.47 167.611 57.32 168.412 57.228 169.213 57.135 169.991 57.171 170.748 57.337 171.503 57.496 172.192 57.822 172.816 58.315 173.437 58.803 173.899 59.525 174.202 60.483V60.483C174.433 61.212 174.497 61.813 174.395 62.284 174.291 62.75 174.117 63.126 173.873 63.412 173.628 63.699 173.366 63.907 173.087 64.038 172.813 64.166 172.616 64.249 172.496 64.287V64.287C171.811 64.504 171.169 64.571 170.571 64.488 169.971 64.398 169.427 64.201 168.939 63.894 168.452 63.588 168.028 63.195 167.667 62.716 167.306 62.237 167.021 61.721 166.811 61.166V61.166C165.793 61.502 165.121 61.903 164.794 62.369 164.459 62.831 164.422 63.474 164.682 64.298ZM171.911 62.536V62.536C172.444 62.368 172.793 62.16 172.959 61.912 173.123 61.658 173.17 61.423 173.102 61.207V61.207C173.02 60.947 172.819 60.753 172.499 60.624 172.184 60.486 171.791 60.404 171.323 60.378 170.854 60.352 170.321 60.377 169.725 60.454 169.13 60.538 168.523 60.66 167.905 60.82V60.82C168.057 61.191 168.271 61.517 168.549 61.799 168.831 62.073 169.15 62.289 169.508 62.448 169.869 62.599 170.253 62.687 170.658 62.712 171.068 62.729 171.486 62.671 171.911 62.536Z" fill="#454545" data-fill-palette-color="primary"></path><path d="M2.318 86.282c0-3.789 3.072-6.861 6.861-6.86 3.789 0 6.861 3.072 6.86 6.86 0 3.789-3.072 6.861-6.861 6.861-3.789 0-6.861-3.072-6.86-6.861zM163.961 86.282c0-3.789 3.072-6.861 6.861-6.86 3.789 0 6.861 3.072 6.86 6.86 0 3.789-3.072 6.861-6.86 6.861-3.789 0-6.861-3.072-6.861-6.861z" fill="#454545" data-fill-palette-color="primary"></path></svg></g></svg></g></svg></g></svg></g></svg></g></svg></g><defs></defs></svg><rect width="320" height="360" fill="none" stroke="none" visibility="hidden"></rect></g></svg></g></svg>